<?xml version="1.0" standalone="no"?>
<!DOCTYPE svg PUBLIC "-//W3C//DTD SVG 20010904//EN"
 "http://www.w3.org/TR/2001/REC-SVG-20010904/DTD/svg10.dtd">
<svg version="1.0" xmlns="http://www.w3.org/2000/svg"
 width="1024.000000pt" height="1024.000000pt" viewBox="0 0 1024.000000 1024.000000"
 preserveAspectRatio="xMidYMid meet">
<metadata>
Created by potrace 1.14, written by Peter Selinger 2001-2017
</metadata>
<g transform="translate(0.000000,1024.000000) scale(0.100000,-0.100000)"
fill="#000000" stroke="none">
<path d="M0 5120 l0 -5120 4720 0 4720 0 0 80 0 80 320 0 320 0 0 -80 0 -80
80 0 80 0 0 5120 0 5120 -5120 0 -5120 0 0 -5120z m4430 4948 c0 -5 4 -8 10
-8 5 0 7 7 3 16 -5 14 -3 15 16 4 22 -11 22 -12 4 -25 -17 -13 -16 -14 10 -24
15 -6 27 -15 27 -21 0 -6 13 -18 30 -29 16 -10 27 -21 23 -24 -3 -4 -12 -2
-18 3 -9 7 -12 2 -13 -20 -1 -34 -2 -33 33 -20 14 5 24 14 20 19 -3 5 -1 12 5
16 16 10 12 -22 -6 -39 -14 -15 -11 -20 9 -17 4 0 7 -6 7 -14 0 -8 5 -15 10
-15 6 0 10 7 10 16 0 10 6 14 14 11 8 -3 16 -1 19 6 2 6 6 3 10 -7 4 -10 3
-15 -3 -11 -6 3 -13 -1 -16 -9 -3 -9 -13 -16 -21 -16 -18 0 -42 -28 -43 -50 0
-12 2 -12 9 -1 6 9 11 10 15 2 4 -6 5 -15 1 -20 -3 -5 -1 -12 3 -15 5 -3 15 6
22 20 8 13 19 23 26 20 6 -2 17 1 23 7 9 9 11 8 6 -5 -5 -12 -2 -18 7 -18 7 0
21 -9 30 -19 14 -16 14 -20 2 -25 -9 -4 -14 2 -14 17 -1 21 -1 21 -15 4 -11
-15 -17 -17 -32 -7 -16 10 -16 11 0 6 9 -3 17 -1 17 4 0 17 -47 11 -54 -6 -9
-24 2 -36 24 -24 16 9 22 5 35 -20 8 -16 23 -30 31 -30 9 0 18 -9 21 -20 7
-25 14 -25 36 1 10 11 21 18 25 14 4 -4 1 -10 -6 -12 -7 -3 0 -14 20 -27 18
-13 32 -28 30 -35 -1 -7 2 -10 7 -6 6 3 10 -9 9 -30 -1 -21 4 -40 12 -45 11
-7 10 -11 -3 -25 -10 -9 -17 -21 -17 -27 0 -6 15 5 33 25 37 39 41 72 12 93
-10 8 -14 14 -8 14 7 0 15 -5 18 -10 5 -8 11 -7 21 1 8 6 17 9 21 5 3 -3 2 -6
-3 -6 -6 0 -10 -11 -9 -25 0 -14 3 -25 8 -25 4 0 12 0 18 0 8 0 8 5 -1 15 -10
12 -10 15 4 15 18 0 22 15 6 25 -5 3 -10 11 -10 16 0 6 7 3 16 -6 9 -9 23 -14
31 -11 8 3 12 2 8 -3 -7 -12 5 -41 17 -41 5 0 6 6 2 13 -5 8 -2 7 10 -2 11 -9
13 -17 6 -21 -7 -5 -6 -11 4 -20 9 -7 13 -17 9 -23 -4 -6 -1 -7 8 -2 8 5 11 4
6 0 -13 -15 -48 -13 -43 1 3 7 0 16 -6 20 -7 4 -8 3 -4 -4 10 -17 -20 -15 -37
2 -8 8 -19 11 -26 6 -10 -5 -4 -13 18 -26 17 -10 31 -23 31 -28 0 -5 -3 -7 -6
-3 -8 7 -34 -17 -34 -32 0 -6 8 -11 18 -11 15 -1 15 -2 -3 -17 -16 -12 -16
-14 -3 -10 10 4 25 -1 35 -11 16 -16 16 -16 11 3 -3 15 0 21 12 21 12 0 16 -7
13 -21 -4 -18 -3 -18 7 -2 17 26 25 20 25 -18 0 -21 -6 -40 -15 -45 -13 -8
-12 -10 3 -10 12 0 16 -4 11 -12 -5 -9 -2 -9 9 1 9 7 17 9 17 3 0 -5 -6 -15
-14 -21 -11 -9 -17 -8 -29 3 -8 8 -17 12 -21 9 -9 -9 -7 -25 2 -19 14 8 35
-11 38 -36 1 -12 3 -24 3 -25 1 -2 1 -5 1 -8 0 -12 45 -55 57 -55 13 0 17 11
13 44 -1 11 3 16 9 11 6 -3 9 -11 6 -16 -4 -5 -2 -9 4 -9 5 0 12 8 14 18 4 14
5 14 6 1 0 -9 -6 -22 -14 -29 -21 -18 -19 -33 4 -25 11 3 22 2 25 -3 3 -6 -2
-9 -11 -8 -9 0 -18 -5 -21 -13 -3 -8 0 -11 7 -7 6 4 11 2 11 -5 0 -8 4 -8 15
1 8 7 24 10 35 7 11 -3 23 -1 26 4 3 5 10 6 16 3 6 -4 8 -1 6 7 -3 8 -10 13
-16 12 -8 -2 -8 4 0 22 6 14 17 25 24 25 19 0 35 -34 24 -48 -7 -9 -7 -9 2 -2
18 15 25 12 32 -14 3 -13 13 -27 22 -30 12 -4 15 -2 10 9 -3 9 0 15 9 15 22 0
18 -28 -5 -40 -15 -8 -20 -8 -20 1 0 8 -4 8 -15 -1 -8 -7 -15 -19 -15 -27 0
-8 -4 -11 -10 -8 -5 3 -10 1 -10 -5 0 -6 -8 -10 -17 -8 -10 1 -24 -1 -30 -5
-9 -6 -13 0 -14 17 -2 46 -12 66 -32 66 -8 0 -7 -3 2 -9 7 -5 15 -25 16 -45 2
-43 4 -45 38 -48 27 -2 27 -18 -1 -19 -12 0 -10 -3 7 -10 15 -6 21 -15 17 -24
-3 -8 -1 -15 4 -15 6 0 10 5 10 11 0 5 5 7 11 3 8 -4 8 -9 1 -13 -6 -4 -8 -20
-3 -41 5 -26 3 -38 -8 -48 -14 -11 -14 -11 0 -6 10 3 26 -4 38 -18 12 -12 17
-24 11 -26 -5 -2 -10 -8 -10 -13 0 -6 4 -8 9 -4 6 3 15 -5 22 -17 7 -13 17
-26 23 -31 16 -11 -21 -37 -45 -32 -13 3 -21 -3 -25 -21 -3 -13 -11 -21 -18
-18 -6 3 -2 -2 8 -10 11 -9 29 -16 40 -16 26 0 76 -48 69 -66 -3 -8 -9 -11
-14 -8 -5 3 -9 -2 -9 -10 0 -14 3 -14 20 -4 22 14 36 6 24 -14 -17 -28 -11
-46 15 -45 14 1 30 7 34 12 5 6 7 2 5 -9 -2 -10 -11 -24 -21 -30 -15 -9 -23
-6 -43 17 -13 15 -24 24 -24 20 0 -4 -4 -2 -9 5 -6 11 -11 10 -25 -3 -9 -9
-14 -21 -11 -26 4 -5 -1 -6 -10 -3 -9 4 -14 13 -11 20 3 8 0 11 -9 7 -8 -3
-12 -9 -9 -14 3 -5 0 -9 -7 -9 -10 0 -10 -3 -2 -11 9 -9 6 -16 -9 -29 -15 -12
-18 -19 -10 -24 7 -4 12 -1 12 7 0 7 7 14 15 14 8 0 15 -7 15 -16 0 -14 2 -14
10 -1 5 8 10 10 10 4 0 -18 -12 -24 -26 -13 -9 8 -11 5 -7 -10 3 -12 11 -17
19 -14 8 3 14 0 14 -6 0 -16 -25 -14 -40 4 -9 11 -16 12 -31 2 -10 -6 -21 -18
-24 -26 -4 -11 -3 -11 9 -2 8 7 21 9 27 5 8 -5 10 -3 4 7 -6 11 -5 12 5 2 11
-10 9 -16 -8 -30 -18 -15 -19 -20 -7 -30 11 -10 18 -8 36 15 l22 27 -5 -27
c-3 -16 0 -29 7 -31 7 -3 10 5 7 23 -2 15 2 31 9 35 8 5 10 4 5 -4 -4 -7 -5
-20 -1 -29 6 -15 8 -15 14 3 7 17 8 16 13 -8 4 -21 2 -27 -8 -23 -9 3 -11 0
-7 -11 4 -10 2 -14 -4 -10 -18 11 -25 -25 -8 -43 8 -9 15 -23 15 -31 0 -12 -2
-11 -10 1 -8 13 -10 13 -10 -2 0 -9 -8 -24 -17 -34 -10 -9 -18 -24 -18 -32 0
-9 -5 -17 -12 -19 -7 -3 -9 4 -5 19 5 20 4 21 -11 10 -17 -15 -18 -32 -2 -44
6 -4 0 -8 -12 -8 -12 0 -23 6 -26 13 -2 6 -2 2 0 -10 2 -13 -1 -23 -6 -23 -5
0 -12 -12 -15 -26 -4 -16 -12 -24 -21 -21 -16 7 -27 -16 -14 -32 6 -8 5 -8 -3
-1 -7 6 -19 10 -28 9 -10 0 -11 -2 -2 -6 6 -2 12 -12 12 -22 0 -9 6 -23 13
-30 10 -11 8 -11 -13 -1 l-25 13 23 -25 22 -25 -32 5 c-18 3 -43 12 -56 20
-16 11 -26 12 -35 3 -8 -6 -17 -7 -22 -3 -4 4 -2 -3 4 -15 10 -19 9 -23 -4
-23 -19 0 -19 -10 0 -38 12 -16 13 -26 5 -42 -13 -24 -18 -25 -42 -3 -18 16
-18 16 -12 0 9 -24 -15 -21 -37 5 -14 15 -19 17 -19 6 0 -8 9 -23 20 -33 11
-10 20 -25 19 -34 0 -13 -2 -12 -8 2 -7 20 -16 21 -43 6 -18 -10 -27 -2 -33
31 -2 11 0 20 6 20 5 0 9 7 9 16 0 9 5 13 13 9 6 -4 3 0 -7 9 -10 8 -23 13
-29 9 -5 -3 -3 -9 4 -14 12 -7 12 -9 0 -9 -9 0 -11 -7 -8 -21 3 -13 -2 -28
-14 -40 -21 -21 -25 -49 -7 -49 6 0 3 -7 -8 -15 -14 -11 -15 -14 -3 -9 10 3
20 -1 25 -8 4 -7 4 -10 -1 -6 -4 4 -14 3 -22 -3 -7 -6 -13 -8 -13 -5 0 4 -9 2
-20 -4 -11 -6 -20 -18 -20 -28 0 -15 -2 -15 -10 -2 -8 13 -10 13 -10 -1 0 -9
-9 -19 -20 -22 -11 -3 -18 -1 -14 4 10 17 -5 9 -32 -16 -27 -25 -51 -28 -46
-6 1 6 -4 11 -12 11 -8 0 -13 -8 -12 -17 1 -13 -8 -18 -36 -19 -22 -1 -35 2
-32 8 3 5 12 7 18 5 17 -7 36 26 25 44 -7 11 -9 10 -9 -5 0 -15 -3 -16 -15 -6
-13 11 -14 10 -9 -3 4 -12 1 -14 -15 -10 -26 7 -35 19 -27 40 5 12 9 14 18 5
7 -7 16 -12 22 -12 5 0 -1 9 -14 20 -28 24 -46 25 -58 4 -8 -14 -10 -14 -25 1
-9 9 -22 13 -27 10 -6 -4 -19 -3 -28 1 -27 12 -43 13 -36 3 3 -5 10 -7 15 -4
5 4 9 1 9 -4 0 -10 -14 -15 -32 -12 -4 0 -5 -6 -2 -14 4 -8 1 -15 -6 -15 -6 0
-8 -5 -4 -11 4 -8 0 -8 -15 0 -24 13 -29 26 -6 17 21 -8 18 14 -5 44 l-20 25
10 -27 c12 -36 2 -36 -26 -1 -21 27 -23 27 -42 10 -15 -14 -21 -15 -25 -5 -4
9 -6 7 -6 -4 -1 -9 4 -20 9 -23 6 -3 10 -1 10 4 0 6 7 11 16 11 9 0 12 5 8 12
-4 7 -3 8 5 4 6 -4 9 -11 6 -16 -3 -4 1 -11 7 -14 7 -3 4 -4 -7 -3 -15 1 -20
-4 -21 -23 -1 -38 -12 -56 -35 -57 -12 -1 -19 1 -16 4 3 3 -3 15 -14 26 -11
12 -17 27 -14 35 3 8 -2 12 -13 10 -10 -2 -16 2 -14 11 2 8 -3 11 -12 8 -9 -4
-18 -2 -21 3 -4 6 0 10 7 11 7 0 4 4 -7 9 -18 7 -19 8 -2 15 9 4 17 13 17 21
0 17 -30 19 -30 2 -1 -8 -6 -6 -14 4 -7 10 -17 14 -21 10 -5 -4 -5 -1 -1 6 5
7 -1 16 -16 22 -21 10 -20 10 6 5 23 -5 27 -3 22 10 -3 9 -2 13 4 10 13 -8 13
8 0 21 -13 13 -16 245 -4 265 4 7 7 25 6 39 -2 20 7 31 38 50 40 25 51 40 28
40 -7 0 -6 6 4 18 8 9 29 42 46 73 17 31 50 77 73 102 22 26 35 47 29 47 -25
0 -132 -61 -204 -117 -42 -32 -99 -75 -128 -95 -46 -33 -75 -56 -126 -98 -7
-6 -17 -8 -22 -5 -6 3 -10 1 -10 -5 0 -16 -43 -30 -52 -16 -5 8 -8 7 -8 -2 0
-9 -7 -11 -19 -7 -11 3 -22 1 -26 -5 -5 -8 -11 -8 -21 1 -12 10 -13 9 -8 -5 3
-9 2 -16 -4 -16 -5 0 -13 7 -16 17 -6 14 -8 14 -21 -3 -8 -11 -15 -14 -15 -6
0 21 -20 13 -20 -9 0 -11 -4 -18 -8 -15 -4 2 -14 1 -22 -4 -11 -7 -12 -11 0
-24 11 -14 10 -16 -3 -11 -8 4 -17 16 -20 28 -2 12 -8 31 -13 42 -7 18 -6 19
12 6 10 -8 8 -3 -6 11 -24 24 -44 20 -33 -9 3 -7 0 -13 -6 -13 -7 0 -14 7 -18
16 -6 15 -8 15 -20 -2 -7 -10 -13 -14 -13 -8 0 5 -5 2 -10 -6 -13 -20 -13 -63
0 -55 5 3 7 0 4 -8 -3 -8 2 -22 11 -31 9 -9 13 -16 9 -16 -3 0 -1 -7 6 -15 10
-12 10 -15 -1 -17 -24 -2 -33 -5 -57 -14 -13 -6 -35 -10 -50 -9 -15 0 -30 -4
-34 -10 -4 -5 -8 -1 -8 10 0 11 -5 27 -10 35 -9 13 -11 13 -20 0 -8 -13 -10
-13 -10 2 0 9 -4 20 -10 23 -6 3 -7 -1 -4 -9 5 -12 0 -16 -19 -16 -14 0 -28 4
-31 9 -4 5 4 7 16 4 13 -3 19 -1 13 4 -19 16 -34 70 -22 82 8 8 8 11 -1 12 -7
1 -17 2 -22 3 -6 0 -14 7 -19 14 -4 7 -17 15 -27 16 -25 4 -32 34 -7 32 12 0
18 6 19 19 0 11 4 28 8 38 7 14 11 15 22 6 21 -17 6 21 -17 43 -19 19 -35 12
-18 -9 9 -9 8 -13 0 -13 -6 0 -11 -7 -11 -16 0 -14 -2 -14 -15 0 -19 19 -19
26 0 26 8 0 14 3 13 8 0 4 2 15 7 25 7 17 9 17 32 1 18 -11 28 -13 33 -5 9 16
43 2 36 -15 -7 -18 16 -64 32 -64 8 0 16 9 19 20 6 23 7 24 32 8 15 -9 22 -9
33 3 12 12 11 16 -2 30 -9 8 -22 13 -28 11 -7 -2 -12 4 -12 13 0 9 5 13 10 10
6 -3 10 3 10 15 0 20 -1 20 -16 5 -14 -13 -19 -14 -25 -3 -5 7 -9 18 -9 23 0
6 5 3 10 -5 8 -13 10 -13 10 2 0 11 5 15 14 12 11 -4 13 0 9 15 -3 14 0 23 11
27 9 3 16 12 16 20 0 8 4 14 8 14 4 0 8 10 9 23 2 19 0 20 -10 6 -7 -9 -19
-14 -27 -11 -12 4 -13 3 -3 -10 10 -12 10 -15 -2 -15 -8 0 -15 4 -15 8 0 5 -7
6 -16 2 -12 -4 -15 -1 -12 13 3 14 11 19 36 17 26 -1 32 2 32 19 0 18 -2 19
-16 7 -33 -27 -70 -8 -79 42 -2 12 -10 28 -17 38 -8 10 -4 9 11 -4 15 -12 25
-16 28 -9 2 6 15 9 28 6 15 -2 25 0 25 7 0 9 -37 16 -63 12 -5 -1 -6 3 -2 9 3
6 10 8 14 6 4 -3 13 0 21 6 12 8 12 9 -2 4 -10 -3 -18 -1 -18 5 0 6 -4 7 -10
4 -5 -3 -10 -2 -10 4 0 5 6 11 13 14 6 2 -1 8 -18 12 -16 5 -36 17 -43 27 -7
10 -19 15 -25 12 -8 -5 -8 -3 1 7 6 7 12 21 12 32 0 10 5 15 10 12 6 -4 8 -10
5 -15 -8 -12 17 -50 32 -50 7 0 13 5 13 11 0 5 -5 7 -12 3 -7 -5 -8 -3 -3 6 6
10 11 9 21 -4 6 -9 15 -13 18 -8 3 6 -2 13 -11 17 -16 6 -15 8 6 25 24 17 36
56 20 65 -3 3 -12 -2 -18 -9 -9 -10 -9 -16 -1 -21 13 -8 -16 -45 -35 -45 -16
0 -27 27 -14 35 11 8 2 25 -13 25 -6 0 -8 -3 -5 -7 4 -3 -2 -13 -13 -20 -11
-8 -17 -19 -14 -25 4 -6 3 -9 -2 -6 -13 9 -11 73 3 73 22 0 25 13 8 39 -18 28
-41 36 -32 12 3 -8 -2 -25 -12 -38 -10 -13 -16 -29 -14 -35 3 -7 0 -13 -6 -13
-6 0 -11 3 -12 8 0 4 -2 17 -3 30 -2 12 2 22 8 22 5 0 1 6 -9 14 -11 8 -23 12
-27 10 -12 -8 -9 25 3 49 12 22 12 22 -10 3 -18 -16 -24 -17 -34 -6 -9 10 -9
11 1 6 8 -5 12 0 12 14 0 14 -4 19 -12 14 -8 -5 -9 -2 -5 10 5 13 3 17 -7 13
-11 -4 -13 1 -11 24 4 26 2 29 -15 24 -14 -5 -18 -2 -15 7 5 12 33 15 78 9 5
-1 6 -10 2 -20 -5 -16 -2 -18 17 -13 12 3 17 7 10 10 -6 2 -12 10 -12 18 0 8
-6 14 -12 14 -7 0 -5 5 5 11 9 6 15 14 12 18 -2 5 2 14 10 21 7 6 11 19 8 27
-5 12 -3 14 6 8 10 -5 11 -2 6 14 -4 12 -2 21 4 21 6 0 11 -3 11 -7 0 -5 15
-9 33 -10 17 -1 25 2 17 5 -17 8 -27 72 -11 72 6 0 11 6 11 13 0 8 12 19 26
26 22 10 29 9 41 -6 13 -17 14 -16 7 6 -4 17 -3 21 6 16 9 -6 9 -3 1 13 -6 11
-8 28 -5 37 5 11 0 18 -15 22 -11 3 -18 9 -15 14 10 16 -7 31 -21 19 -9 -8
-15 -8 -20 0 -3 5 -1 10 6 10 9 0 8 4 -1 15 -13 16 -31 16 -42 0 -5 -6 -8 -5
-8 3 0 9 -7 11 -19 7 -24 -7 -31 11 -35 99 -3 69 15 126 40 126 8 0 14 7 14
15 0 9 11 20 25 25 16 6 23 14 19 25 -4 11 -2 13 9 10 8 -4 26 6 43 24 34 37
45 38 64 9 17 -24 37 -45 67 -69 16 -13 21 -13 32 -2 6 7 9 19 5 26 -5 9 -4 9
7 0 7 -7 23 -13 35 -13 12 0 27 -7 34 -15 9 -10 9 -15 1 -15 -6 0 -11 5 -11
11 0 5 -5 7 -11 4 -6 -4 -8 -13 -5 -21 3 -8 0 -14 -5 -14 -6 0 -9 8 -7 18 4
15 1 18 -18 14 -26 -5 -40 -30 -24 -46 7 -7 10 -6 10 2 0 7 6 12 14 12 20 0
67 -40 60 -52 -4 -6 1 -8 14 -4 11 4 23 2 27 -4 3 -6 10 -8 15 -5 4 3 11 -6
14 -20 4 -14 11 -25 16 -25 5 0 7 7 4 15 -7 18 16 51 25 36 4 -5 12 2 18 16
12 24 11 25 -15 20 -27 -5 -61 7 -75 27 -5 7 -12 5 -21 -6 -16 -22 -38 -24
-30 -3 4 8 12 15 19 15 7 0 15 5 17 11 3 8 10 6 20 -5 10 -10 19 -12 23 -6 4
6 16 4 31 -6 13 -9 27 -14 31 -10 3 3 13 -3 20 -14 8 -11 19 -18 24 -15 5 4 9
2 9 -3 0 -6 7 -13 16 -16 11 -4 15 -2 11 8 -7 18 3 28 17 17 7 -6 16 -3 25 6
12 13 11 14 -8 8 -22 -7 -30 8 -11 20 8 5 7 12 -2 23 -11 14 -9 14 8 0 22 -19
39 -24 30 -9 -4 5 3 7 14 4 23 -6 25 4 6 30 -13 17 -14 17 -20 0 -4 -10 -10
-13 -14 -8 -9 13 -52 19 -52 7 0 -5 -13 -9 -30 -9 -16 0 -30 4 -30 8 0 10 30
20 41 13 5 -3 9 0 9 6 0 7 6 10 14 7 10 -4 12 0 9 14 -4 14 0 19 15 19 12 0
24 -4 27 -10 3 -6 -1 -7 -9 -4 -9 3 -16 4 -16 1 0 -3 7 -7 15 -11 21 -8 47 22
40 45 -6 17 -2 19 25 17 19 -1 29 -7 26 -14 -3 -7 0 -14 7 -17 13 -4 37 16 37
32 0 6 5 11 10 11 6 0 10 -5 10 -12 0 -6 8 -4 19 6 21 19 35 8 24 -21 -5 -13
2 -9 24 11 22 20 30 36 27 52 -2 12 0 25 6 29 5 3 9 -9 8 -30 -1 -19 -5 -35
-10 -35 -4 0 -8 -6 -8 -14 0 -8 -6 -17 -12 -19 -8 -3 -7 -6 4 -6 9 -1 20 8 23
19 4 11 10 18 15 15 4 -3 6 4 3 15 -6 21 -1 23 35 14 14 -4 21 -12 18 -20 -8
-21 12 -17 24 5 7 14 7 22 -2 27 -7 4 -8 3 -4 -4 4 -7 4 -12 -1 -12 -13 1 -59
29 -48 30 6 0 2 7 -8 14 -18 14 -18 15 0 25 10 6 12 11 6 11 -15 0 -18 30 -3
30 6 0 10 4 10 8 0 5 -7 9 -15 9 -8 0 -12 -4 -9 -9 9 -14 -17 -9 -33 8 -12 12
-13 18 -4 23 8 5 9 15 3 32 l-9 24 -7 -23 c-4 -12 -11 -20 -16 -17 -5 3 -11 1
-14 -4 -4 -5 2 -12 11 -14 14 -4 13 -5 -4 -6 -30 -1 -29 22 2 53 18 18 33 24
55 21 16 -2 30 -1 30 3 0 4 14 7 30 8 30 1 40 -10 18 -19 -7 -3 -3 -6 10 -6
16 -1 21 3 16 12 -5 8 -2 8 9 -2 15 -12 17 -11 17 2 0 9 8 18 18 21 9 2 4 4
-13 3 -19 -1 -29 3 -27 11 1 6 -7 12 -18 12 -24 0 -26 15 -4 24 10 4 22 -1 30
-11 13 -17 15 -16 18 9 0 6 8 13 16 16 8 3 12 1 8 -3 -7 -8 36 -55 50 -55 12
0 34 17 35 26 1 5 5 8 10 7 4 -2 7 2 7 7 0 6 6 10 14 10 8 0 16 7 20 15 5 13
9 13 26 3 11 -7 20 -16 20 -20z m765 -27 c3 -5 1 -12 -5 -16 -6 -4 -8 -11 -5
-16 3 -5 -1 -6 -10 -2 -12 4 -13 8 -5 13 7 4 9 13 6 19 -4 6 -3 11 3 11 5 0
12 -4 16 -9z m-1081 -26 c-4 -8 -8 -15 -10 -15 -2 0 -4 7 -4 15 0 8 4 15 10
15 5 0 7 -7 4 -15z m-76 -27 c-2 -6 -14 -15 -26 -19 -20 -7 -21 -6 -9 11 13
21 41 28 35 8z m1127 -23 c-1 -23 4 -31 17 -31 10 0 18 3 18 6 0 3 9 6 20 7
11 1 20 -2 20 -8 0 -5 7 -9 16 -9 12 0 15 -6 11 -21 -4 -15 1 -28 16 -40 16
-13 18 -19 7 -19 -12 0 -12 -3 2 -11 24 -13 -1 -69 -30 -69 -6 0 -13 -6 -15
-12 -4 -9 -6 -7 -6 3 -1 9 -7 16 -13 17 -41 4 -56 9 -78 30 -14 12 -33 21 -42
18 -11 -2 -15 1 -11 11 5 13 3 13 -17 3 -18 -10 -24 -9 -31 1 -5 8 -9 17 -9
22 0 4 -5 7 -11 7 -20 0 -36 25 -28 45 4 11 8 15 8 8 1 -7 10 -17 22 -23 17
-10 21 -8 26 9 6 25 12 26 40 6 16 -12 22 -12 26 -2 4 7 6 6 6 -4 1 -9 -6 -19
-14 -23 -9 -3 -15 0 -15 9 0 8 -4 15 -10 15 -14 0 -13 -17 2 -26 20 -13 76
-10 71 3 -3 7 -10 10 -15 7 -6 -4 -8 2 -3 15 5 15 2 21 -9 21 -9 0 -16 4 -16
10 0 5 8 7 18 3 9 -3 14 -3 10 2 -4 4 -3 14 2 20 8 9 5 14 -10 18 -17 4 -19 3
-9 -9 9 -11 8 -14 -3 -14 -20 0 -28 9 -21 27 3 8 16 13 32 11 22 -3 26 -8 26
-33z m47 17 c-7 -2 -12 -10 -12 -18 0 -8 -4 -14 -10 -14 -5 0 -10 6 -10 13 0
19 21 37 34 30 6 -4 6 -8 -2 -11z m-1265 -54 c-3 -8 -6 -5 -6 6 -1 11 2 17 5
13 3 -3 4 -12 1 -19z m668 3 c3 -5 1 -12 -5 -16 -5 -3 -10 1 -10 9 0 18 6 21
15 7z m-610 -70 c-3 -6 -11 -11 -17 -11 -6 0 -6 6 2 15 14 17 26 13 15 -4z
m680 9 c-3 -5 -12 -10 -18 -10 -7 0 -6 4 3 10 19 12 23 12 15 0z m35 -34 c0
-3 -4 -8 -10 -11 -5 -3 -10 -1 -10 4 0 6 5 11 10 11 6 0 10 -2 10 -4z m307 -2
c-3 -3 -12 -4 -19 -1 -8 3 -5 6 6 6 11 1 17 -2 13 -5z m-1037 -15 c0 -10 -30
-20 -41 -13 -5 3 -7 9 -5 13 6 9 46 9 46 0z m819 2 c9 -6 10 -11 2 -15 -6 -4
-11 -3 -11 3 0 6 -7 8 -16 4 -9 -3 -14 -13 -11 -24 3 -10 -1 -23 -7 -29 -10
-7 -16 -3 -24 16 -16 34 -14 43 3 20 11 -15 15 -16 15 -5 0 15 19 39 30 39 3
0 11 -4 19 -9z m-1079 -17 c0 -2 -7 -4 -15 -4 -8 0 -15 4 -15 10 0 5 7 7 15 4
8 -4 15 -8 15 -10z m1123 -6 c-13 -6 -23 -15 -23 -20 0 -5 -5 -6 -11 -2 -12 7
26 34 46 33 6 0 0 -5 -12 -11z m187 -35 c0 -13 -3 -13 -15 -3 -8 7 -12 16 -9
21 8 13 24 1 24 -18z m-179 0 c7 -45 6 -63 -2 -58 -5 4 -9 13 -9 21 0 8 -7 17
-16 21 -13 5 -13 7 -2 14 16 11 28 11 29 2z m-112 -29 c2 -2 9 0 15 6 8 6 16
3 23 -9 9 -14 8 -17 -6 -16 -9 0 -22 5 -30 9 -7 5 -18 3 -24 -3 -14 -14 -30
-15 -22 -1 3 6 -1 10 -9 10 -9 0 -16 4 -16 10 0 8 58 3 69 -6z m-982 0 c-3 -3
-12 -4 -19 -1 -8 3 -5 6 6 6 11 1 17 -2 13 -5z m-237 -50 c0 -8 -6 -11 -15 -8
-8 4 -15 12 -15 20 0 8 6 11 15 8 8 -4 15 -12 15 -20z m234 14 c-3 -4 -9 -8
-15 -8 -5 0 -9 4 -9 8 0 5 7 9 15 9 8 0 12 -4 9 -9z m-106 -34 c1 -15 -2 -23
-8 -19 -6 3 -10 13 -10 21 0 8 -4 14 -10 14 -5 0 -10 4 -10 9 0 22 36 -2 38
-25z m-23 -23 c6 -21 5 -22 -14 -12 -13 7 -21 22 -21 37 0 22 2 23 14 12 7 -8
17 -24 21 -37z m1373 0 c3 -8 -3 -12 -14 -9 -23 4 -31 27 -8 24 10 -2 20 -8
22 -15z m-1212 -37 c-3 -9 -6 -17 -6 -20 0 -2 -7 -1 -15 2 -12 5 -13 10 -4 20
16 19 33 18 25 -2z m1084 -30 c0 -8 -5 -12 -10 -9 -6 4 -8 11 -5 16 9 14 15
11 15 -7z m200 12 c0 -3 -4 -8 -10 -11 -5 -3 -10 -1 -10 4 0 6 5 11 10 11 6 0
10 -2 10 -4z m-1410 -40 c0 -3 -4 -8 -10 -11 -5 -3 -10 -1 -10 4 0 6 5 11 10
11 6 0 10 -2 10 -4z m1426 -13 c11 -12 13 -18 5 -21 -13 -4 -41 16 -41 29 0
14 17 10 36 -8z m-56 -56 c0 -2 -10 -12 -22 -23 l-23 -19 19 23 c18 21 26 27
26 19z m50 -31 c0 -3 -4 -8 -10 -11 -5 -3 -10 -1 -10 4 0 6 5 11 10 11 6 0 10
-2 10 -4z m295 -156 c3 -5 1 -10 -5 -10 -7 0 -9 -7 -6 -16 10 -25 -4 -37 -20
-17 -12 17 -13 16 -14 -7 -1 -21 -2 -22 -10 -8 -13 21 -2 48 16 41 8 -3 14 1
14 11 0 18 15 22 25 6z m-2075 -32 c0 -18 -2 -20 -9 -8 -6 8 -7 18 -5 22 9 14
14 9 14 -14z m1906 4 c0 -10 -8 -19 -18 -19 -21 -2 -23 8 -6 25 17 17 24 15
24 -6z m98 -21 c9 -14 -6 -22 -20 -10 -10 8 -15 5 -20 -14 -4 -17 -11 -24 -21
-20 -8 3 -11 9 -6 12 5 3 12 14 16 24 7 18 42 24 51 8z m-2054 -31 c0 -11 -4
-20 -9 -20 -5 0 -7 9 -4 20 3 11 7 20 9 20 2 0 4 -9 4 -20z m1982 -42 c-7 -7
-12 -8 -12 -2 0 14 12 26 19 19 2 -3 -1 -11 -7 -17z m448 -71 c-1 -12 27 -37
42 -37 18 -1 48 -25 48 -39 0 -6 5 -11 11 -11 5 0 7 -4 4 -10 -3 -5 3 -10 14
-10 13 0 21 -7 21 -17 0 -14 2 -15 9 -4 6 9 11 10 15 2 5 -7 14 -6 31 5 31 20
45 11 43 -30 -1 -18 3 -39 7 -46 12 -19 15 -60 4 -60 -5 0 -9 -7 -9 -15 0 -8
-5 -15 -11 -15 -5 0 -7 -4 -4 -10 3 -5 -1 -10 -10 -10 -9 0 -19 -9 -22 -20 -3
-11 -11 -20 -19 -20 -7 0 -22 -9 -33 -21 -22 -24 -61 -18 -61 9 0 13 -2 14 -9
3 -6 -9 -11 -10 -15 -2 -7 10 -74 -14 -87 -32 -3 -4 -16 15 -29 43 -13 27 -27
50 -31 50 -14 0 -41 72 -31 82 7 7 7 19 1 36 -7 19 -6 29 7 43 14 15 14 19 3
19 -12 0 -11 2 1 10 9 6 17 5 21 -2 4 -7 9 -7 13 0 3 6 15 8 25 5 13 -3 21 2
26 16 3 12 11 21 16 21 5 0 9 7 9 17 0 14 -2 14 -20 -2 -20 -18 -21 -18 -14 0
6 14 4 16 -7 10 -8 -5 -4 3 9 17 12 13 19 28 15 33 -5 4 -2 6 5 4 8 -3 13 -8
12 -12z m-254 -25 c-1 -28 -7 -32 -49 -33 -12 0 -17 -5 -13 -15 7 -17 -3 -46
-14 -39 -11 7 -1 47 15 60 12 10 15 17 15 36 0 5 4 8 8 5 4 -2 14 -1 22 5 8 5
15 9 16 9 1 0 1 -13 0 -28z m423 -38 c-11 -13 -11 -15 2 -14 32 5 69 -1 69
-11 0 -5 -4 -8 -9 -4 -5 3 -13 1 -16 -5 -5 -8 -11 -8 -20 0 -7 6 -20 8 -29 4
-9 -3 -16 -1 -16 5 0 6 -7 11 -15 11 -18 0 -20 16 -3 26 7 4 8 3 4 -4 -4 -7
-1 -12 9 -12 8 0 18 7 22 15 3 9 8 14 11 11 3 -3 -1 -13 -9 -22z m-2816 -69
c-3 -9 -8 -14 -10 -11 -3 3 -2 9 2 15 9 16 15 13 8 -4z m2388 -8 c-10 -9 -11
-8 -5 6 3 10 9 15 12 12 3 -3 0 -11 -7 -18z m-43 -12 c-3 -3 -9 2 -12 12 -6
14 -5 15 5 6 7 -7 10 -15 7 -18z m5 -92 c-3 -7 -8 -13 -12 -13 -4 0 -8 6 -8
13 0 8 6 14 13 14 7 0 10 -6 7 -14z m-2315 -51 c6 -18 -15 -14 -22 4 -4 10 -1
14 6 12 6 -2 14 -10 16 -16z m178 -20 c-9 -11 -14 -26 -11 -35 4 -8 3 -17 -2
-20 -16 -10 -13 46 4 65 9 10 18 16 21 13 3 -3 -2 -13 -12 -23z m-56 -157 c0
-9 6 -12 17 -8 10 4 14 2 10 -4 -4 -6 -1 -13 5 -16 9 -3 7 -9 -7 -20 -19 -15
-20 -14 -26 12 -3 15 -9 33 -13 39 -4 7 -2 12 3 12 6 0 11 -7 11 -15z m-114
-63 c-9 -8 -26 10 -26 26 1 15 2 15 15 -2 8 -11 13 -21 11 -24z m2651 18 c-3
-11 -1 -22 3 -25 5 -3 11 3 13 12 4 17 5 16 6 0 1 -11 -7 -21 -19 -24 -11 -3
-20 -10 -20 -15 0 -6 7 -8 15 -4 8 3 15 1 15 -5 0 -6 -8 -9 -17 -7 -10 1 -23
-1 -30 -5 -16 -10 -40 1 -45 21 -7 28 2 42 27 42 14 0 30 7 37 15 18 20 21 19
15 -5z m-2550 -9 c1 -1 -3 -14 -8 -31 -8 -22 -17 -30 -34 -30 -28 0 -47 22
-39 44 5 12 10 13 25 5 17 -9 23 -5 20 13 0 5 22 4 36 -1z m68 -11 c3 -5 1
-10 -4 -10 -6 0 -11 5 -11 10 0 6 2 10 4 10 3 0 8 -4 11 -10z m22 -65 c14 -32
3 -32 -27 0 -22 23 -22 25 -4 25 10 0 24 -11 31 -25z m-71 -30 c7 -17 -12 -45
-30 -45 -9 0 -13 37 -7 58 3 9 33 -1 37 -13z m54 -26 c0 -6 7 -17 15 -25 26
-26 18 -46 -8 -21 -31 29 -41 57 -22 57 8 0 15 -5 15 -11z m-34 -29 c0 -11 -5
-21 -11 -24 -9 -3 -12 22 -6 42 4 11 17 -2 17 -18z m105 -37 c13 -16 12 -17
-3 -4 -10 7 -18 15 -18 17 0 8 8 3 21 -13z m42 -108 c-7 -21 -13 -19 -13 6 0
11 4 18 10 14 5 -3 7 -12 3 -20z m47 -25 c0 -5 -4 -10 -10 -10 -5 0 -10 5 -10
10 0 6 5 10 10 10 6 0 10 -4 10 -10z m2466 -23 c8 3 14 0 14 -7 0 -8 9 -11 25
-8 18 4 25 1 25 -10 0 -8 3 -13 6 -9 9 9 43 -25 37 -39 -2 -7 0 -21 5 -30 16
-29 -29 -164 -56 -164 -7 0 -10 -4 -7 -10 4 -6 -8 -10 -29 -10 -23 0 -36 5
-36 13 0 9 -11 12 -36 9 -26 -3 -35 -1 -30 7 4 6 1 11 -6 11 -28 1 -60 39 -73
90 -15 53 -31 75 -54 73 -15 -2 -20 1 -15 10 19 33 25 36 51 24 21 -9 27 -9
31 1 2 6 13 12 23 12 11 0 17 5 14 10 -7 12 -3 12 19 4 9 -3 14 -10 11 -15 -3
-4 8 -3 25 2 20 8 30 18 31 32 0 12 3 17 5 10 3 -7 12 -9 20 -6z m-474 -49
c-12 -12 -22 -16 -26 -10 -4 6 4 20 16 32 29 27 38 6 10 -22z m78 36 c0 -4
-12 -18 -27 -32 -17 -16 -21 -23 -10 -19 19 7 22 -1 7 -23 -6 -10 -10 -11 -10
-2 0 6 -7 12 -16 12 -8 0 -12 -4 -9 -10 4 -6 -6 -10 -22 -10 -27 0 -27 1 22
45 48 42 65 53 65 39z m-2300 -25 c0 -6 -4 -7 -10 -4 -5 3 -10 11 -10 16 0 6
5 7 10 4 6 -3 10 -11 10 -16z m2495 -69 c-28 -12 -37 -12 -30 0 3 6 16 10 28
9 21 0 21 -1 2 -9z m-2135 -10 c0 -5 -4 -10 -10 -10 -5 0 -10 5 -10 10 0 6 5
10 10 10 6 0 10 -4 10 -10z m-334 -28 c-18 -16 -18 -16 -6 6 6 13 14 21 18 18
3 -4 -2 -14 -12 -24z m2498 -34 c-11 -17 -31 -7 -31 16 0 22 1 23 18 8 10 -9
16 -19 13 -24z m-2485 -9 c-15 -9 -32 -2 -24 11 3 5 13 6 21 3 12 -4 13 -8 3
-14z m311 17 c0 -3 -4 -8 -10 -11 -5 -3 -10 -1 -10 4 0 6 5 11 10 11 6 0 10
-2 10 -4z m106 -29 c14 5 13 2 -2 -15 -23 -27 -34 -28 -29 -2 2 11 0 20 -6 20
-5 0 -9 -5 -9 -12 0 -6 -3 -8 -6 -5 -4 4 -1 14 6 22 12 15 14 15 22 1 5 -9 15
-13 24 -9z m-76 -1 c0 -11 -19 -15 -25 -6 -3 5 1 10 9 10 9 0 16 -2 16 -4z
m2187 -48 c-3 -8 -6 -5 -6 6 -1 11 2 17 5 13 3 -3 4 -12 1 -19z m-612 -36 c-3
-3 -11 0 -18 7 -9 10 -8 11 6 5 10 -3 15 -9 12 -12z m-1585 -8 c0 -2 -7 -4
-15 -4 -8 0 -15 4 -15 10 0 5 7 7 15 4 8 -4 15 -8 15 -10z m1580 -28 c-5 -5
-17 -11 -25 -12 -11 -2 -12 2 -5 16 5 9 6 21 2 25 -4 4 3 2 15 -6 15 -9 19
-17 13 -23z m54 9 c-4 -8 -8 -15 -10 -15 -2 0 -4 7 -4 15 0 8 4 15 10 15 5 0
7 -7 4 -15z m-1636 -20 c-3 -3 -9 2 -12 12 -6 14 -5 15 5 6 7 -7 10 -15 7 -18z
m1602 -16 c0 -5 -4 -8 -9 -4 -5 3 -12 1 -16 -5 -3 -5 -11 -10 -18 -10 -6 0 -2
7 9 15 23 17 34 19 34 4z m120 7 c0 -3 -4 -8 -10 -11 -5 -3 -10 -1 -10 4 0 6
5 11 10 11 6 0 10 -2 10 -4z m-216 -84 c2 -4 -5 -9 -17 -9 -17 -2 -19 0 -7 7
18 12 18 12 24 2z m-120 -31 c3 -5 -1 -12 -10 -15 -10 -4 -13 -2 -8 6 5 8 2 9
-10 5 -10 -4 -15 -3 -11 3 8 12 32 13 39 1z m46 -26 c0 -8 -4 -15 -10 -15 -5
0 -7 7 -4 15 4 8 8 15 10 15 2 0 4 -7 4 -15z m-20 -35 c0 -5 -2 -10 -4 -10 -3
0 -8 5 -11 10 -3 6 -1 10 4 10 6 0 11 -4 11 -10z m-775 -63 c0 -6 6 -12 14
-15 8 -3 11 0 7 7 -4 6 -3 11 3 11 5 0 12 -4 15 -8 5 -8 -6 -15 -59 -41 -5 -3
-4 2 3 11 10 13 9 16 -9 21 -14 4 -20 11 -16 21 4 9 1 16 -6 16 -8 0 -7 3 2 9
15 9 46 -13 46 -32z m331 26 c-7 -7 -66 -15 -66 -8 0 9 44 23 58 17 7 -2 11
-6 8 -9z m345 -18 c5 4 6 -1 3 -9 -8 -20 -24 -11 -23 12 0 11 2 12 6 4 2 -6 9
-10 14 -7z m-536 -45 c3 -5 1 -10 -4 -10 -6 0 -11 -7 -11 -16 0 -8 -4 -13 -8
-10 -4 2 -14 1 -21 -3 -10 -7 -8 -14 10 -32 14 -14 17 -20 6 -16 -8 3 -18 3
-20 -1 -2 -4 -2 -2 -1 5 2 7 -1 15 -6 18 -15 9 -12 19 13 48 24 28 33 32 42
17z m70 -9 c-8 -14 -25 -14 -25 0 0 5 5 7 10 4 6 -3 10 -1 10 6 0 7 3 10 6 6
3 -3 3 -10 -1 -16z m50 -31 c3 -5 1 -10 -4 -10 -6 0 -11 5 -11 10 0 6 2 10 4
10 3 0 8 -4 11 -10z m-135 -14 c0 -3 -4 -8 -10 -11 -5 -3 -10 -1 -10 4 0 6 5
11 10 11 6 0 10 -2 10 -4z m180 -6 c0 -5 -5 -10 -11 -10 -5 0 -7 5 -4 10 3 6
8 10 11 10 2 0 4 -4 4 -10z m300 -1154 c0 -2 -7 -7 -16 -10 -8 -3 -12 -2 -9 4
6 10 25 14 25 6z m-2015 -193 c-52 -82 -111 -179 -131 -218 -20 -38 -42 -77
-49 -85 -12 -14 -53 -85 -81 -141 -8 -14 -25 -36 -39 -49 -14 -13 -25 -30 -25
-38 0 -19 -71 -142 -82 -142 -11 0 -10 5 9 45 9 19 20 35 25 35 4 0 8 8 8 17
0 9 11 33 23 52 68 103 127 198 127 203 0 3 40 68 89 144 177 277 208 324 216
324 2 0 -38 -66 -90 -147z m1690 79 c-58 -37 -144 -76 -151 -69 -9 9 51 58 84
67 20 6 48 17 62 25 14 8 34 14 45 15 13 0 -2 -14 -40 -38z m125 -1 c-6 -12
-17 -21 -25 -21 -21 0 -19 10 7 37 25 26 36 16 18 -16z m-80 -46 c-7 -8 -17
-12 -23 -8 -6 4 -3 9 9 14 27 11 28 11 14 -6z m-232 -45 c-12 -18 -48 -29 -48
-14 0 10 33 33 48 34 10 0 10 -4 0 -20z m356 14 c17 -6 23 -34 8 -34 -5 0 -17
9 -27 20 -18 20 -11 25 19 14z m-14 -42 c0 -13 -11 -10 -37 11 -7 5 -10 13 -7
18 7 12 44 -13 44 -29z m-190 -32 c0 -7 27 -10 72 -8 69 3 72 2 78 -22 4 -17
1 -29 -9 -37 -22 -17 -66 -16 -81 2 -7 8 -16 13 -20 10 -5 -3 -19 -1 -31 4
-16 5 -35 3 -58 -6 -27 -12 -39 -12 -57 -3 -12 7 -27 9 -33 6 -6 -4 -11 -5
-11 -2 0 8 69 47 98 56 38 12 52 12 52 0z m-266 -9 c3 -4 -6 -19 -19 -31 -26
-24 -33 -14 -15 21 11 20 25 25 34 10z m572 -47 c51 -55 41 -57 -19 -4 -25 22
-50 40 -57 40 -6 0 -9 4 -5 10 10 15 38 -1 81 -46z m-2391 -609 c-9 -20 -19
-35 -21 -32 -3 2 3 21 12 41 10 19 20 34 22 31 3 -2 -3 -21 -13 -40z m-34 -72
c-12 -20 -14 -14 -5 12 4 9 9 14 11 11 3 -2 0 -13 -6 -23z m166 -71 c59 -19
173 -85 173 -100 0 -20 -47 -96 -68 -110 -20 -13 -22 -13 -22 6 0 16 5 19 22
14 18 -4 20 -2 14 14 -5 10 -10 26 -13 35 -7 25 -162 62 -268 64 -52 1 -68 -4
-120 -34 -33 -19 -69 -42 -80 -51 -11 -9 -28 -20 -38 -23 -22 -8 -127 -87
-127 -96 0 -4 -14 -17 -31 -30 l-31 -23 18 29 c103 162 192 250 274 268 19 4
41 12 48 17 6 6 12 7 12 3 0 -5 8 -1 18 8 33 30 138 34 219 9z m1961 -375 l-4
-69 21 25 c11 14 28 37 38 51 20 29 67 36 67 11 0 -8 2 -15 4 -15 2 0 33 -7
68 -16 35 -10 73 -18 85 -18 12 -1 30 -11 40 -22 10 -12 23 -19 29 -17 16 5
44 -24 44 -45 0 -10 9 -25 20 -35 25 -21 30 -21 30 -2 0 8 4 15 8 15 5 0 14
10 20 23 6 12 11 16 11 8 1 -8 -7 -23 -16 -34 -17 -19 -17 -20 3 -9 28 15 34
7 34 -39 0 -21 5 -41 11 -45 6 -3 8 -18 5 -33 l-6 -26 19 22 c11 14 17 31 14
43 -3 11 0 20 6 20 6 0 9 -13 7 -30 -5 -41 10 -38 24 4 14 44 33 38 49 -15 11
-35 31 -54 31 -29 0 16 27 11 34 -6 3 -9 6 -30 6 -47 0 -45 10 -55 46 -50 27
4 31 8 26 26 -5 21 -5 21 12 4 10 -9 22 -15 27 -12 5 4 9 -1 9 -9 0 -9 5 -16
10 -16 6 0 10 -7 10 -15 0 -8 -4 -15 -10 -15 -14 0 -13 -67 1 -76 8 -5 10 0 6
17 -3 13 -2 31 3 39 8 12 10 10 10 -8 0 -13 4 -20 10 -17 5 3 7 0 4 -8 -3 -9
4 -21 16 -30 15 -10 18 -17 10 -22 -9 -6 -9 -10 1 -16 20 -12 28 -2 24 29 -2
15 -2 21 1 15 8 -18 27 -16 20 2 -3 8 -1 15 4 15 6 0 10 8 11 18 0 14 2 14 8
-3 5 -11 5 -24 1 -30 -4 -5 -6 -44 -4 -85 2 -67 0 -78 -22 -103 -13 -16 -27
-26 -32 -24 -4 3 -7 -13 -7 -36 0 -24 -5 -42 -13 -45 -14 -4 -12 19 3 30 6 5
5 8 -2 8 -7 0 -10 7 -7 15 4 8 1 15 -6 15 -7 0 -10 -8 -7 -20 3 -12 -1 -23
-11 -29 -13 -7 -12 -10 7 -20 25 -14 27 -67 2 -76 -12 -5 -11 -8 3 -18 16 -12
16 -14 2 -26 -17 -14 -22 -41 -8 -41 5 0 9 -7 9 -15 0 -8 -7 -15 -16 -15 -14
0 -14 -2 -2 -9 11 -7 12 -13 3 -24 -9 -11 -9 -14 3 -14 16 0 28 24 19 38 -3 5
-1 9 3 9 9 0 17 57 16 108 -1 12 4 22 9 22 6 0 7 11 4 25 -5 20 -3 25 13 25
11 0 21 6 23 12 3 7 7 2 10 -10 4 -12 3 -20 -1 -18 -3 2 -6 -68 -7 -157 0
-203 -7 -316 -22 -343 -6 -11 -9 -35 -7 -53 3 -26 0 -34 -15 -38 -11 -3 -17
-10 -13 -17 5 -7 2 -7 -8 1 -9 8 -20 9 -29 3 -36 -23 -59 5 -37 43 8 12 13 29
12 37 0 8 2 17 6 20 3 3 10 16 14 29 5 18 4 22 -6 16 -8 -5 -6 1 4 12 18 21
23 38 7 28 -5 -3 -5 7 1 25 6 16 15 30 20 30 10 0 0 32 -14 41 -4 3 -1 13 7
22 19 19 21 48 4 65 -15 15 -28 16 -28 2 0 -5 7 -10 15 -10 22 0 18 -21 -5
-27 -11 -3 -17 -9 -14 -14 8 -13 -10 -11 -23 2 -9 9 -13 5 -18 -17 -4 -16 -11
-40 -17 -54 -17 -38 -17 -49 -2 -43 12 4 14 -3 12 -30 -1 -20 -5 -34 -9 -31
-4 2 -7 -10 -6 -28 2 -26 -2 -32 -15 -30 -12 2 -20 -8 -27 -35 -6 -20 -8 -39
-6 -42 8 -8 -17 -31 -27 -25 -6 4 -5 -4 2 -16 9 -17 9 -21 0 -15 -6 4 -20 -1
-31 -11 -14 -13 -19 -14 -19 -4 0 26 -17 -4 -28 -48 -6 -24 -6 -44 -1 -48 5
-3 9 -1 9 4 0 6 9 8 20 5 23 -6 28 -43 6 -43 -8 0 -16 5 -18 11 -2 5 -11 7
-21 3 -12 -4 -16 -13 -11 -26 3 -12 1 -24 -6 -28 -7 -4 -9 -13 -6 -19 4 -6 12
-9 17 -6 5 3 6 -1 3 -10 -5 -12 -9 -13 -20 -4 -8 6 -14 8 -15 3 0 -5 -2 -19
-5 -31 -2 -13 0 -23 6 -23 17 0 -28 -84 -47 -86 -17 -3 -17 -2 0 10 18 14 24
32 7 21 -13 -8 -20 10 -24 61 -1 22 -7 48 -13 58 -9 17 -11 15 -21 -13 -13
-36 -15 -37 -38 -14 -17 17 -17 16 -10 -10 6 -24 4 -28 -11 -25 -10 2 -17 10
-15 16 1 7 -2 12 -7 12 -15 0 -22 33 -9 42 8 5 1 8 -20 8 -20 0 -34 -6 -37
-15 -3 -8 -8 -23 -12 -32 -10 -29 -11 -83 0 -83 5 0 4 -7 -3 -15 -8 -10 -9
-15 -2 -15 6 0 9 -7 6 -15 -5 -12 -2 -14 12 -8 16 5 17 4 7 -8 -15 -18 -20
-51 -10 -66 6 -9 3 -11 -7 -7 -10 4 -16 1 -16 -9 0 -10 -7 -15 -19 -12 -13 2
-20 -2 -20 -13 0 -9 -2 -29 -5 -44 -2 -16 0 -28 6 -28 5 0 7 10 3 23 -6 20 -5
21 8 5 8 -10 19 -18 26 -18 13 0 15 -16 2 -24 -5 -4 -11 0 -14 6 -3 10 -7 10
-20 0 -9 -8 -13 -20 -10 -28 4 -10 9 -11 17 -5 8 7 12 4 12 -9 0 -10 -3 -18
-6 -18 -16 1 -17 -5 -5 -39 12 -35 11 -38 -9 -48 -11 -7 -20 -17 -18 -23 1 -7
-2 -12 -8 -12 -5 0 -10 4 -10 9 0 5 -13 14 -30 20 -16 5 -30 16 -30 23 -1 7
-7 0 -14 -17 -12 -25 -15 -27 -21 -12 -4 9 -13 17 -20 17 -6 0 -24 11 -39 25
-15 14 -32 22 -38 19 -7 -4 -8 -2 -4 4 4 7 1 12 -8 12 -9 0 -13 7 -11 19 3 14
-1 18 -11 14 -8 -3 -14 -2 -13 3 4 26 -4 43 -27 59 -15 9 -23 11 -19 4 6 -8 4
-10 -4 -5 -7 5 -10 14 -7 21 2 7 -2 16 -10 19 -8 3 -14 9 -13 13 4 25 -3 35
-21 30 -11 -3 -20 -1 -20 4 0 5 -10 4 -22 -3 -13 -7 -28 -11 -35 -10 -6 1 -15
-3 -19 -9 -5 -8 -3 -10 7 -4 11 6 11 5 2 -5 -14 -15 -36 -3 -29 16 3 8 1 14
-4 14 -6 0 -10 -10 -11 -22 0 -13 -3 -17 -6 -10 -2 6 -11 12 -19 12 -8 0 -14
5 -14 10 0 6 -5 10 -11 10 -5 0 -7 -5 -3 -12 5 -8 2 -9 -10 -5 -10 4 -21 7
-25 7 -4 0 -13 15 -19 34 -7 19 -19 37 -28 40 -9 3 -12 2 -9 -4 4 -6 -5 -5
-19 1 -14 7 -29 21 -32 33 -7 21 -7 21 -15 -1 -12 -32 -41 -20 -33 13 4 14 2
24 -4 24 -17 0 -44 32 -38 46 3 8 0 11 -10 7 -7 -3 -14 -9 -14 -14 0 -5 -7 -9
-15 -9 -8 0 -15 5 -15 11 0 5 -5 7 -10 4 -6 -4 -8 -10 -5 -15 3 -5 0 -12 -6
-16 -9 -5 -10 2 -6 24 4 18 3 32 0 32 -13 0 -63 -54 -63 -68 0 -8 -6 -12 -14
-9 -8 3 -22 -3 -31 -13 -13 -14 -22 -17 -35 -10 -10 5 -21 6 -25 2 -5 -4 -5
-2 -2 4 4 7 0 14 -8 18 -8 3 -12 12 -9 20 3 8 1 23 -5 33 -9 16 -10 16 -11 -4
0 -14 -6 -23 -16 -23 -18 0 -11 34 12 61 8 8 14 20 14 26 0 5 11 30 25 54 39
70 48 93 36 97 -6 2 -9 7 -6 11 2 5 -2 17 -10 27 -12 16 -14 17 -15 3 0 -17
-26 -33 -40 -24 -10 6 -9 85 1 85 5 0 9 7 9 17 0 14 -2 14 -20 -2 -17 -16 -20
-16 -20 -2 0 20 39 49 54 40 6 -4 5 1 -3 10 -11 14 -11 18 3 23 16 6 23 54 9
54 -13 0 -35 -17 -35 -26 -2 -18 -30 -77 -44 -91 -7 -8 -18 -12 -23 -8 -12 7
-25 -31 -15 -46 4 -7 3 -9 -4 -5 -20 12 -37 -33 -17 -46 6 -5 3 -8 -6 -8 -25
0 -33 32 -13 47 10 7 15 13 11 13 -4 0 -2 12 4 27 7 19 6 29 -2 37 -9 8 -10 7
-4 -3 5 -9 3 -12 -5 -9 -20 6 -26 72 -16 177 6 63 0 80 -20 54 -12 -16 -13 -7
-8 64 6 68 4 84 -10 98 -14 15 -14 19 0 47 21 40 11 47 -20 13 -15 -16 -26
-26 -26 -23 0 16 25 76 39 92 13 16 13 18 1 11 -8 -4 -5 3 8 17 12 13 22 31
22 39 0 15 53 102 78 128 7 7 21 29 31 50 11 20 46 65 79 101 32 36 62 75 66
87 8 24 189 211 246 253 18 14 54 44 79 66 59 53 229 150 256 146 6 -1 23 9
39 23 16 14 32 25 35 25 4 0 13 15 20 33 11 26 14 29 18 13 3 -11 3 -50 1 -89z
m4818 42 c3 -6 0 -15 -7 -21 -10 -6 1 -8 31 -6 34 2 45 -1 45 -11 0 -16 -80
-67 -120 -77 -14 -3 -23 -10 -20 -14 3 -5 20 -4 38 1 42 12 47 11 41 -5 -3 -8
-13 -12 -25 -9 -10 3 -19 0 -19 -6 0 -6 -7 -11 -16 -11 -13 0 -14 -3 -4 -15
10 -12 5 -18 -35 -35 -25 -11 -56 -27 -68 -36 l-22 -16 23 5 c19 4 21 3 11 -9
-16 -19 -55 -18 -63 3 -6 15 -8 15 -16 3 -5 -8 -13 -15 -17 -16 -23 -2 -41
-17 -36 -30 3 -8 0 -14 -6 -14 -6 0 -11 -7 -11 -16 0 -8 -4 -12 -10 -9 -5 3
-10 -3 -10 -14 0 -12 -4 -22 -10 -22 -5 -1 -18 -2 -27 -3 -10 -1 -24 -5 -30
-9 -7 -5 -17 -5 -23 -2 -5 3 -10 1 -10 -5 0 -7 -6 -8 -19 0 -13 7 -28 7 -45 0
-16 -6 -26 -6 -26 0 0 11 -48 -8 -67 -26 -22 -21 -19 -39 6 -39 25 0 42 -21
19 -23 -33 -3 -53 -11 -50 -21 1 -6 -5 -11 -14 -11 -8 0 -12 5 -9 10 3 6 2 10
-4 10 -16 0 -22 -18 -9 -24 11 -5 11 -7 0 -12 -6 -3 -10 -10 -6 -15 10 -17 -7
-71 -21 -65 -9 3 -11 -2 -8 -15 3 -10 9 -19 14 -19 5 0 9 -5 9 -11 0 -5 -5 -7
-12 -3 -24 15 -80 4 -110 -21 -16 -14 -34 -23 -39 -20 -5 4 -14 -5 -21 -19 -6
-14 -20 -26 -30 -26 -13 0 -26 -17 -42 -54 -13 -29 -34 -61 -47 -71 -19 -14
-20 -16 -5 -11 19 7 19 6 3 -12 -9 -10 -17 -22 -17 -25 0 -13 23 -7 37 11 11
13 13 13 10 2 -2 -8 -16 -21 -30 -28 -15 -7 -27 -21 -27 -32 0 -10 -4 -21 -10
-25 -5 -3 -8 -11 -6 -18 1 -7 1 -9 -1 -4 -3 4 -11 7 -19 7 -8 0 -13 -3 -12 -7
1 -5 -3 -18 -10 -29 -6 -12 -9 -24 -6 -27 3 -3 -2 -3 -13 -1 -22 6 -173 -133
-173 -159 0 -23 9 -21 34 6 36 39 114 97 151 113 20 8 40 25 45 37 5 12 9 15
9 8 1 -8 -11 -28 -26 -44 l-28 -29 25 7 c14 4 28 13 32 19 4 6 8 7 8 2 0 -5 6
-3 14 3 7 6 21 8 30 5 11 -4 22 1 32 15 9 12 19 19 24 16 5 -3 24 1 42 8 18 8
39 12 46 10 6 -3 12 0 12 7 0 6 4 8 10 5 5 -3 20 0 32 7 13 7 59 14 103 15 99
3 118 6 127 17 6 9 18 12 66 18 6 1 12 5 12 10 0 5 4 7 8 4 4 -3 26 -1 48 4
68 15 128 19 164 11 l35 -8 -42 -12 c-23 -6 -49 -18 -57 -26 -8 -8 -28 -15
-45 -15 -16 0 -42 -5 -58 -12 -15 -6 -36 -13 -47 -15 -23 -4 -73 -43 -55 -43
8 0 5 -6 -7 -15 -13 -10 -16 -17 -7 -22 6 -5 13 -17 15 -28 2 -15 -2 -19 -17
-17 -11 2 -21 7 -23 10 -8 22 -21 30 -55 35 -31 5 -38 3 -33 -8 4 -11 0 -12
-21 -4 -20 7 -30 6 -40 -4 -22 -22 18 -81 73 -107 24 -12 44 -26 44 -31 0 -6
-4 -8 -9 -5 -5 4 -7 -3 -4 -14 3 -11 8 -18 12 -15 4 2 15 -9 25 -26 17 -30 10
-39 -13 -16 -10 10 -15 9 -25 -5 -7 -10 -21 -18 -30 -18 -18 0 -19 -2 -10 -24
8 -20 34 -21 34 -1 0 21 12 19 33 -6 30 -34 39 -70 27 -100 l-12 -27 -42 31
c-52 39 -88 91 -84 120 2 13 -2 21 -9 20 -7 -2 -13 2 -13 7 0 6 -10 24 -22 40
-16 23 -25 27 -39 20 -12 -7 -19 -6 -22 3 -3 8 -7 6 -12 -6 -7 -17 -8 -17 -20
0 -13 17 -14 16 -24 -10 -6 -16 -16 -25 -21 -22 -16 10 -41 -16 -35 -35 5 -15
-4 -20 -47 -31 -45 -11 -49 -14 -28 -19 33 -8 11 -19 -74 -36 -10 -2 -24 -11
-32 -21 -11 -15 -15 -16 -23 -4 -7 11 -10 10 -15 -6 -6 -17 -111 -123 -122
-123 -11 0 -42 -35 -38 -42 3 -5 -3 -23 -14 -41 -11 -17 -22 -43 -26 -57 -3
-14 -20 -41 -37 -60 -18 -21 -26 -36 -19 -38 7 -3 17 1 23 7 6 6 20 11 31 11
15 0 17 3 8 12 -9 9 -3 17 26 34 45 28 61 30 38 5 -16 -17 -14 -18 41 -14 32
3 64 9 71 15 19 16 85 16 100 1 8 -8 37 -13 70 -13 123 -1 225 -18 287 -50 47
-23 55 -30 35 -31 l-25 -1 28 -10 c30 -11 36 -35 10 -40 -10 -2 -35 0 -57 4
-27 6 -43 5 -54 -4 -12 -10 -14 -10 -8 0 4 7 1 12 -9 12 -9 0 -14 -3 -12 -7 3
-5 -15 -6 -39 -4 -27 2 -44 -1 -44 -8 0 -6 -7 -11 -15 -11 -14 0 -13 -3 2 -24
10 -13 22 -22 26 -19 14 9 57 -19 57 -36 0 -12 2 -13 8 -3 7 9 13 8 27 -8 10
-11 13 -20 7 -20 -6 0 -14 5 -17 10 -4 6 -10 8 -15 5 -5 -3 -16 2 -24 11 -9 8
-16 11 -16 5 0 -16 -30 -13 -36 2 -4 10 -24 13 -72 12 -89 -3 -94 -3 -87 -14
3 -6 -9 -7 -30 -4 -23 4 -35 2 -35 -6 0 -6 -10 -11 -22 -12 -21 -1 -21 -1 4
-11 24 -8 26 -12 14 -24 -19 -18 -36 -18 -36 1 0 8 -5 15 -11 15 -6 0 -9 -7
-5 -15 3 -8 0 -15 -7 -16 -43 -2 -74 -10 -110 -29 -60 -31 -76 -48 -69 -72 3
-14 1 -19 -6 -15 -5 4 -13 1 -16 -5 -2 -7 -4 -2 -3 11 2 22 -3 25 -37 27 -32
3 -43 -2 -67 -29 -16 -17 -29 -28 -29 -24 0 5 -12 -1 -26 -12 -15 -12 -33 -21
-40 -21 -8 0 -13 -4 -12 -8 2 -5 -12 -21 -29 -36 -18 -15 -33 -34 -33 -42 0
-8 -4 -14 -10 -14 -5 0 -10 -6 -10 -14 0 -17 83 24 122 61 15 14 36 27 47 28
35 2 103 38 89 46 -10 6 -10 11 -1 20 7 7 17 8 25 3 7 -5 51 -10 98 -11 156
-5 262 -11 267 -17 4 -3 16 -6 27 -6 17 -1 15 -3 -9 -14 -25 -12 -27 -15 -12
-21 9 -4 17 -15 17 -26 0 -10 8 -24 18 -31 9 -7 19 -24 20 -38 2 -14 8 -30 14
-37 5 -7 6 -22 2 -35 -4 -13 -7 -26 -6 -30 3 -11 -93 28 -118 48 -19 15 -79
23 -105 14 -12 -4 -32 0 -52 11 -18 10 -48 21 -66 24 -17 3 -38 12 -46 20 -12
12 -19 10 -46 -18 -41 -40 -113 -98 -142 -114 -17 -8 -23 -8 -26 0 -3 7 -8 3
-12 -8 -15 -43 -29 -65 -35 -55 -3 5 -13 1 -23 -10 -16 -19 -16 -20 1 -21 13
0 11 -3 -6 -9 -28 -12 -43 -48 -30 -73 6 -12 6 -23 -2 -32 -7 -8 -10 -20 -8
-27 5 -15 50 -17 60 -3 4 5 10 6 14 2 4 -4 0 -15 -9 -25 -16 -15 -19 -15 -27
-2 -8 12 -12 12 -18 2 -7 -10 -12 -8 -26 7 -19 21 -23 46 -11 75 6 13 5 17 -2
13 -18 -11 -22 19 -7 48 18 36 18 55 -2 55 -8 0 -12 5 -9 10 16 25 -9 27 -31
2 -27 -29 -28 -26 -6 45 8 25 7 35 -4 44 -11 9 -14 8 -14 -7 0 -14 -3 -15 -12
-6 -7 7 -20 12 -31 12 -26 0 -19 52 9 64 21 9 46 54 51 91 7 54 38 129 69 170
19 25 38 45 42 45 4 0 25 23 46 52 27 35 40 64 42 90 1 22 -1 36 -7 32 -5 -3
-7 -10 -4 -15 4 -5 1 -9 -6 -9 -6 0 -18 -8 -25 -17 -9 -12 -13 -14 -14 -5 0
22 -16 5 -39 -40 -28 -57 -38 -71 -91 -129 -25 -27 -51 -49 -58 -49 -7 0 -11
-4 -7 -9 6 -10 -11 -24 -35 -28 -8 -1 -20 -9 -26 -17 -6 -9 -14 -13 -17 -9
-11 10 -8 61 3 68 6 3 10 13 10 22 0 8 10 29 22 45 21 30 21 30 0 19 -11 -6
-22 -16 -24 -23 -3 -7 -7 -5 -11 6 -5 13 -1 19 13 23 11 3 20 12 20 20 0 7 7
25 16 39 19 28 15 38 -10 28 -14 -5 -14 -9 -4 -22 11 -13 11 -14 0 -8 -9 5
-21 0 -33 -13 -11 -12 -27 -21 -35 -21 -11 0 -9 8 10 33 20 25 25 44 23 74 -1
23 -5 39 -9 37 -3 -2 -15 12 -27 31 -13 23 -16 35 -8 36 9 0 9 2 0 5 -7 3 -10
18 -6 38 3 20 1 36 -6 40 -6 4 -11 2 -11 -3 0 -15 -27 -14 -36 1 -5 7 -7 25
-6 40 2 22 -1 26 -14 21 -9 -3 -20 0 -25 8 -6 10 -9 10 -9 2 0 -7 -4 -13 -9
-13 -5 0 -8 13 -7 29 1 17 -2 28 -6 25 -15 -10 -14 104 1 119 6 6 11 16 11 23
0 7 9 33 20 58 11 26 19 49 19 52 0 3 8 13 19 22 10 9 22 30 26 45 3 15 10 26
15 23 7 -5 46 34 44 44 -4 19 31 72 58 85 24 13 29 19 18 26 -13 8 -12 10 10
13 13 1 261 257 261 268 0 5 11 20 25 34 14 14 25 30 25 36 0 7 -7 3 -15 -8
-8 -10 -14 -14 -14 -9 0 18 24 42 38 37 7 -2 12 1 10 7 -6 16 272 301 293 301
20 0 57 50 51 67 -3 7 4 16 14 20 10 4 23 13 29 21 6 9 20 16 30 17 26 3 56
16 75 32 24 21 130 83 141 83 5 0 6 -4 3 -10 -10 -16 5 -12 40 10 26 16 35 30
40 60 7 42 19 51 29 23 6 -14 9 -15 16 -4 4 8 15 11 24 8 9 -4 35 2 58 12 24
10 75 26 113 36 39 9 75 20 80 23 6 4 15 7 20 8 6 1 46 14 90 29 132 45 248
64 261 44z m-4152 -210 c-3 -5 -1 -9 4 -9 5 0 9 -18 10 -41 1 -24 -2 -38 -8
-34 -6 3 -10 22 -10 41 0 22 -6 37 -15 40 -22 9 -18 23 5 17 11 -3 17 -9 14
-14z m4056 -23 c0 -11 -19 -15 -25 -6 -3 5 1 10 9 10 9 0 16 -2 16 -4z m-830
-75 c0 -5 -7 -12 -16 -15 -14 -5 -15 -4 -4 9 14 17 20 19 20 6z m-3146 -90 c3
-5 -1 -11 -9 -15 -15 -6 -29 7 -18 18 9 9 21 8 27 -3z m524 -171 c10 -28 12
-70 2 -70 -6 0 -10 15 -10 33 0 17 -4 39 -9 47 -6 8 -7 19 -4 24 4 6 8 4 11
-4 2 -8 6 -22 10 -30z m483 -199 c20 -19 33 -81 17 -81 -4 0 -8 3 -9 8 -2 26
-9 46 -23 68 -20 29 -13 31 15 5z m-412 -60 c0 -20 -4 -45 -9 -56 -8 -18 -9
-18 -9 5 -1 14 -4 42 -7 63 -6 32 -4 36 10 31 11 -4 16 -18 15 -43z m-316
-111 c-3 -11 -7 -20 -9 -20 -2 0 -4 9 -4 20 0 11 4 20 9 20 5 0 7 -9 4 -20z
m2137 -95 c-7 -9 -15 -13 -18 -10 -3 2 1 11 8 20 7 9 15 13 18 10 3 -2 -1 -11
-8 -20z m715 -35 c-3 -5 -10 -10 -16 -10 -5 0 -9 5 -9 10 0 6 7 10 16 10 8 0
12 -4 9 -10z m-775 -50 c0 -5 -2 -10 -4 -10 -3 0 -8 5 -11 10 -3 6 -1 10 4 10
6 0 11 -4 11 -10z m1339 -329 c10 -14 28 -47 40 -74 12 -26 39 -75 61 -108 22
-34 37 -66 34 -71 -7 -11 -44 40 -44 59 0 7 -10 15 -23 18 -29 8 -43 31 -68
108 -11 33 -26 68 -34 77 -13 15 -13 17 0 17 9 0 24 -12 34 -26z m-3735 -79
c6 -10 -21 -72 -32 -72 -5 0 -8 10 -7 23 1 12 3 30 4 40 1 17 26 24 35 9z
m-1600 -77 c-8 -21 -30 -25 -31 -6 -1 10 6 17 17 18 12 1 17 -3 14 -12z m106
-12 c0 -5 -5 -15 -10 -23 -8 -12 -10 -11 -10 8 0 12 5 22 10 22 6 0 10 -3 10
-7z m4390 -33 c0 -5 -2 -10 -4 -10 -3 0 -8 5 -11 10 -3 6 -1 10 4 10 6 0 11
-4 11 -10z m1 -43 c-13 -12 -20 -15 -16 -7 14 26 28 41 33 35 3 -3 -5 -16 -17
-28z m43 -41 c-3 -9 -13 -16 -22 -16 -13 0 -12 3 3 20 20 23 29 21 19 -4z
m-4486 -32 c0 -15 -4 -22 -10 -16 -5 5 -6 16 -2 25 9 23 12 21 12 -9z m4532
12 c0 -2 -7 -7 -16 -10 -8 -3 -12 -2 -9 4 6 10 25 14 25 6z m-3260 -65 c0 -5
-7 -14 -15 -21 -12 -10 -15 -10 -15 2 0 8 3 18 7 21 9 10 23 9 23 -2z m-923
-76 c-4 -8 -12 -15 -19 -14 -10 0 -10 2 0 6 6 2 12 12 12 21 0 8 3 13 6 9 4
-3 4 -13 1 -22z m-167 -4 c0 -6 -4 -13 -10 -16 -5 -3 -10 -15 -10 -26 0 -11
-4 -18 -8 -15 -14 8 -1 66 14 66 8 0 14 -4 14 -9z m-80 -11 c0 -5 -9 -14 -20
-20 -14 -7 -20 -7 -20 0 0 5 7 10 16 10 8 0 12 5 9 10 -3 6 -1 10 4 10 6 0 11
-4 11 -10z m30 -26 c0 -8 -4 -12 -10 -9 -5 3 -10 13 -10 21 0 8 5 12 10 9 6
-3 10 -13 10 -21z m240 18 c0 -5 -7 -9 -15 -9 -8 0 -12 4 -9 9 3 4 9 8 15 8 5
0 9 -4 9 -8z m994 -27 c-6 -16 -24 -21 -24 -7 0 11 11 22 21 22 5 0 6 -7 3
-15z m3511 5 c3 -5 1 -10 -4 -10 -6 0 -11 5 -11 10 0 6 2 10 4 10 3 0 8 -4 11
-10z m260 -11 c5 -6 3 -9 -7 -9 -24 0 -48 11 -48 22 0 10 39 1 55 -13z m-4655
-9 c0 -5 -4 -10 -10 -10 -5 0 -10 5 -10 10 0 6 5 10 10 10 6 0 10 -4 10 -10z
m4732 -35 c7 -1 12 -6 11 -13 -2 -7 2 -12 9 -12 6 0 9 -3 6 -6 -10 -10 -58 27
-58 45 0 14 2 14 10 1 5 -8 15 -15 22 -15z m-4052 -13 c0 -5 -7 -9 -15 -9 -8
0 -15 4 -15 9 0 4 7 8 15 8 8 0 15 -4 15 -8z m3870 -74 c0 -9 -29 1 -47 15
-25 19 -12 26 17 9 16 -9 30 -20 30 -24z m-523 -84 c-3 -3 -12 -4 -19 -1 -8 3
-5 6 6 6 11 1 17 -2 13 -5z m-607 -110 c-18 -21 -24 -10 -9 18 8 14 14 18 17
10 2 -7 -2 -19 -8 -28z m937 -118 c-4 -9 -14 -16 -24 -15 -10 0 -13 3 -7 5 6
3 9 17 6 32 -4 25 -3 26 13 10 10 -9 15 -23 12 -32z m-4403 -82 c4 -10 1 -14
-6 -12 -15 5 -23 28 -10 28 5 0 13 -7 16 -16z m3907 -4 c16 9 24 6 45 -17 13
-15 22 -20 19 -12 -4 10 3 14 30 14 19 0 35 -3 35 -7 0 -5 6 -8 13 -8 15 0 57
-44 57 -59 0 -5 11 -18 25 -29 25 -20 34 -52 14 -52 -5 0 -8 -4 -4 -9 3 -5 1
-12 -5 -16 -6 -3 -13 1 -16 9 -3 9 -10 16 -16 16 -5 0 -21 11 -35 25 -26 23
-28 24 -47 7 -18 -16 -18 -16 -7 6 10 19 9 22 -9 22 -17 0 -20 -6 -20 -40 0
-22 5 -40 10 -40 6 0 10 -12 10 -26 0 -14 -4 -23 -9 -20 -5 3 -8 -10 -6 -29 2
-19 -1 -36 -6 -36 -5 -1 -15 -2 -21 -3 -7 -1 -16 -5 -20 -10 -3 -5 -11 8 -17
30 -7 25 -7 40 -1 42 6 2 10 8 10 14 0 7 -5 6 -14 -1 -11 -10 -21 -9 -44 3
-22 11 -32 12 -41 3 -10 -10 -14 4 -13 53 0 3 3 16 7 30 7 22 6 23 -8 12 -13
-11 -15 -10 -12 5 2 10 4 20 5 23 1 3 2 9 1 13 -1 4 6 15 14 23 8 9 12 20 9
26 -4 6 4 19 17 29 13 10 25 14 27 9 2 -6 11 -6 23 0z m-121 -30 c0 -5 -5 -10
-11 -10 -5 0 -7 5 -4 10 3 6 8 10 11 10 2 0 4 -4 4 -10z m13 -77 c-1 -32 -2
-65 -2 -74 -1 -10 -10 -16 -24 -16 -26 0 -29 17 -9 54 7 12 12 29 12 38 0 14
17 55 23 55 1 0 1 -26 0 -57z m-2038 -52 c-3 -6 -14 -11 -23 -11 -15 1 -15 2
2 15 21 16 32 13 21 -4z m64 -103 c1 -4 -6 -14 -15 -22 -32 -32 -48 12 -17 46
17 19 18 19 24 1 4 -10 8 -21 8 -25z m1938 -10 c-3 -7 -5 -2 -5 12 0 14 2 19
5 13 2 -7 2 -19 0 -25z m-27 -8 c0 -5 -5 -10 -11 -10 -5 0 -7 5 -4 10 3 6 8
10 11 10 2 0 4 -4 4 -10z m380 -17 c0 -9 3 -13 7 -9 4 4 15 -22 25 -56 24 -82
29 -116 18 -123 -29 -18 -76 114 -71 198 1 22 21 12 21 -10z m-2417 -29 c-3
-8 -15 -14 -27 -14 -19 1 -19 2 -3 11 9 6 15 14 12 20 -3 5 1 6 9 3 8 -3 12
-12 9 -20z m87 6 c0 -5 -2 -10 -4 -10 -3 0 -8 5 -11 10 -3 6 -1 10 4 10 6 0
11 -4 11 -10z m2396 -67 c-11 -11 -17 4 -9 23 7 18 8 18 11 1 2 -10 1 -21 -2
-24z m-2520 -18 c-3 -9 -12 -12 -22 -8 -16 6 -16 7 0 18 9 7 17 18 17 26 1 8
3 6 6 -4 3 -10 2 -25 -1 -32z m44 35 c0 -5 -2 -10 -4 -10 -3 0 -8 5 -11 10 -3
6 -1 10 4 10 6 0 11 -4 11 -10z m2092 -452 c-7 -29 -23 -20 -18 10 2 15 5 41
7 57 2 27 3 26 8 -10 4 -22 5 -48 3 -57z m525 -38 c-3 -11 -1 -22 4 -25 9 -6
1 -35 -10 -35 -4 0 -6 12 -5 28 2 42 4 52 10 52 4 0 4 -9 1 -20z"/>
<path d="M4142 9924 c-1 -13 0 -24 2 -24 7 0 14 40 7 44 -4 3 -8 -6 -9 -20z"/>
<path d="M4146 9861 c-4 -5 3 -7 14 -4 23 6 26 13 6 13 -8 0 -17 -4 -20 -9z"/>
<path d="M3880 9716 c0 -9 4 -16 9 -16 5 0 12 -8 14 -17 4 -14 5 -14 6 3 0 12
-6 27 -14 34 -12 10 -15 10 -15 -4z"/>
<path d="M4640 9721 c0 -5 7 -11 15 -15 8 -3 15 -1 15 3 0 5 -7 11 -15 15 -8
3 -15 1 -15 -3z"/>
<path d="M4056 9697 c3 -10 9 -15 12 -12 3 3 0 11 -7 18 -10 9 -11 8 -5 -6z"/>
<path d="M3945 9680 c3 -5 8 -10 11 -10 2 0 4 5 4 10 0 6 -5 10 -11 10 -5 0
-7 -4 -4 -10z"/>
<path d="M4715 9640 c-3 -6 1 -7 9 -4 18 7 21 14 7 14 -6 0 -13 -4 -16 -10z"/>
<path d="M4768 9629 c-10 -10 -15 -19 -10 -19 10 1 42 26 42 34 0 11 -15 5
-32 -15z"/>
<path d="M4690 9605 c0 -8 2 -15 4 -15 2 0 6 7 10 15 3 8 1 15 -4 15 -6 0 -10
-7 -10 -15z"/>
<path d="M3655 9590 c3 -5 8 -10 11 -10 2 0 4 5 4 10 0 6 -5 10 -11 10 -5 0
-7 -4 -4 -10z"/>
<path d="M4750 9595 c0 -5 4 -16 9 -23 6 -11 10 -10 15 4 6 16 8 16 16 4 8
-13 10 -12 10 3 0 9 -7 17 -15 17 -8 0 -15 -6 -15 -12 0 -9 -4 -8 -10 2 -5 8
-10 11 -10 5z"/>
<path d="M5050 9371 c0 -6 4 -13 10 -16 6 -3 7 1 4 9 -7 18 -14 21 -14 7z"/>
<path d="M4993 9306 c7 -14 15 -22 19 -20 14 9 9 23 -11 33 -17 10 -18 8 -8
-13z"/>
<path d="M3363 9295 c0 -8 4 -15 9 -15 4 0 8 5 8 11 0 5 5 7 12 3 7 -4 8 -3 4
4 -10 17 -33 15 -33 -3z"/>
<path d="M5080 9186 c0 -2 8 -10 18 -17 15 -13 16 -12 3 4 -13 16 -21 21 -21
13z"/>
<path d="M5113 9144 c-17 -13 -16 -14 12 -8 37 8 39 10 21 17 -8 3 -22 -1 -33
-9z"/>
<path d="M3202 9018 c-6 -9 -4 -19 10 -33 16 -17 18 -17 13 -2 -8 20 5 23 23
5 7 -7 12 -8 12 -2 0 11 -32 44 -42 44 -3 0 -10 -6 -16 -12z"/>
<path d="M3413 8973 c0 -9 4 -10 14 -2 7 6 13 12 13 14 0 1 -6 2 -13 2 -8 0
-14 -6 -14 -14z"/>
<path d="M3216 8926 c-17 -27 -7 -42 20 -32 11 4 12 10 5 25 -8 14 -7 21 2 24
8 4 8 6 1 6 -7 1 -19 -10 -28 -23z"/>
<path d="M3146 8917 c3 -10 9 -15 12 -12 3 3 0 11 -7 18 -10 9 -11 8 -5 -6z"/>
<path d="M3360 8911 c0 -5 5 -13 10 -16 6 -3 10 -2 10 4 0 5 -4 13 -10 16 -5
3 -10 2 -10 -4z"/>
<path d="M3230 8870 c0 -5 7 -10 15 -10 8 0 15 5 15 10 0 6 -7 10 -15 10 -8 0
-15 -4 -15 -10z"/>
<path d="M3402 8868 c-17 -17 -15 -25 8 -31 16 -4 18 -2 10 13 -5 9 -6 20 -3
24 3 3 4 6 2 6 -3 0 -10 -5 -17 -12z"/>
<path d="M5240 8860 c19 -13 30 -13 30 0 0 6 -10 10 -22 10 -19 0 -20 -2 -8
-10z"/>
<path d="M3205 8840 c-3 -5 -1 -10 4 -10 6 0 11 5 11 10 0 6 -2 10 -4 10 -3 0
-8 -4 -11 -10z"/>
<path d="M3358 8813 c6 -2 18 -2 25 0 6 3 1 5 -13 5 -14 0 -19 -2 -12 -5z"/>
<path d="M3393 8705 c0 -8 4 -12 9 -9 5 3 6 10 3 15 -9 13 -12 11 -12 -6z"/>
<path d="M3393 8673 c-7 -2 -13 -16 -13 -29 0 -19 5 -24 24 -24 28 0 45 -19
26 -30 -8 -5 -5 -14 12 -33 17 -18 28 -23 38 -17 12 7 12 12 2 22 -6 6 -12 8
-12 4 0 -5 -7 -3 -15 4 -11 9 -12 16 -5 25 8 9 3 19 -18 37 -16 13 -27 29 -24
36 4 13 4 13 -15 5z"/>
<path d="M3366 8514 c-4 -9 -4 -19 -1 -22 2 -3 7 3 11 12 4 9 4 19 1 22 -2 3
-7 -3 -11 -12z"/>
<path d="M3450 8512 c0 -12 19 -26 26 -19 2 2 -2 10 -11 17 -9 8 -15 8 -15 2z"/>
<path d="M3471 8434 c0 -11 3 -14 6 -6 3 7 2 16 -1 19 -3 4 -6 -2 -5 -13z"/>
<path d="M5270 8409 c0 -5 5 -7 10 -4 6 3 10 8 10 11 0 2 -4 4 -10 4 -5 0 -10
-5 -10 -11z"/>
<path d="M3495 8390 c-3 -5 -1 -10 4 -10 6 0 11 5 11 10 0 6 -2 10 -4 10 -3 0
-8 -4 -11 -10z"/>
<path d="M5330 8271 c0 -6 4 -13 10 -16 6 -3 7 1 4 9 -7 18 -14 21 -14 7z"/>
<path d="M3486 8251 c-4 -7 -5 -15 -2 -18 9 -9 19 4 14 18 -4 11 -6 11 -12 0z"/>
<path d="M3450 8230 c-8 -5 -12 -12 -9 -15 4 -3 12 1 19 10 14 17 11 19 -10 5z"/>
<path d="M5235 8209 c3 -4 -1 -10 -7 -13 -7 -2 2 -4 20 -3 38 2 42 13 7 19
-13 3 -22 2 -20 -3z"/>
<path d="M5266 8171 c-4 -7 -5 -15 -2 -18 9 -9 19 4 14 18 -4 11 -6 11 -12 0z"/>
<path d="M3455 8141 c-3 -5 -1 -12 5 -16 5 -3 10 1 10 9 0 18 -6 21 -15 7z"/>
<path d="M5246 8101 c-4 -7 -5 -15 -2 -18 9 -9 19 4 14 18 -4 11 -6 11 -12 0z"/>
<path d="M5200 8040 c0 -5 5 -10 10 -10 6 0 10 5 10 10 0 6 -4 10 -10 10 -5 0
-10 -4 -10 -10z"/>
<path d="M4945 7890 c7 -11 45 -20 45 -10 0 4 -11 10 -25 12 -13 3 -22 2 -20
-2z"/>
<path d="M5036 7881 c-4 -5 -2 -12 3 -15 5 -4 12 -2 15 3 4 5 2 12 -3 15 -5 4
-12 2 -15 -3z"/>
<path d="M4800 7860 c-12 -7 -10 -9 7 -7 12 0 19 5 17 9 -6 10 -6 10 -24 -2z"/>
<path d="M5056 7851 c-3 -5 0 -14 8 -20 10 -9 15 -8 19 3 9 22 -15 37 -27 17z"/>
<path d="M4370 7795 c0 -26 6 -30 28 -16 11 6 10 11 -3 25 -22 21 -25 20 -25
-9z"/>
<path d="M4885 7811 c-6 -11 13 -26 22 -17 4 3 1 6 -6 6 -7 0 -9 5 -6 10 3 6
4 10 1 10 -3 0 -7 -4 -11 -9z"/>
<path d="M4299 7773 c-8 -10 -9 -14 -2 -10 7 4 16 0 22 -10 9 -15 10 -14 9 10
-3 31 -10 34 -29 10z"/>
<path d="M4830 7777 c0 -5 5 -17 10 -28 8 -15 7 -19 -4 -19 -8 0 -16 10 -19
23 -3 21 -4 21 -15 -7 -10 -23 -17 -27 -37 -24 -20 4 -25 1 -26 -16 0 -11 -2
-31 -3 -44 -2 -13 1 -25 6 -28 5 -3 8 -2 7 3 -4 23 3 42 17 47 12 5 15 2 10
-9 -3 -9 -2 -13 4 -10 17 10 11 25 -12 35 -13 5 -16 9 -8 9 8 0 26 -6 39 -13
24 -13 28 -13 70 11 9 5 8 54 -1 60 -7 3 -8 1 -4 -5 4 -7 3 -12 -3 -12 -5 0
-15 8 -20 18 -6 9 -11 13 -11 9z"/>
<path d="M4209 7753 c-13 -16 -12 -17 4 -4 16 13 21 21 13 21 -2 0 -10 -8 -17
-17z"/>
<path d="M4271 7744 c0 -11 3 -14 6 -6 3 7 2 16 -1 19 -3 4 -6 -2 -5 -13z"/>
<path d="M4365 7749 c-9 -14 -2 -20 14 -10 8 6 9 11 3 15 -6 3 -14 1 -17 -5z"/>
<path d="M4576 7747 c3 -10 9 -15 12 -12 3 3 0 11 -7 18 -10 9 -11 8 -5 -6z"/>
<path d="M4766 7752 c-3 -6 -1 -14 5 -17 15 -10 25 3 12 16 -7 7 -13 7 -17 1z"/>
<path d="M4203 7715 c0 -13 45 -40 53 -32 2 2 -9 13 -24 24 -20 15 -29 17 -29
8z"/>
<path d="M4475 7720 c-3 -5 1 -10 9 -10 9 0 16 5 16 10 0 6 -4 10 -9 10 -6 0
-13 -4 -16 -10z"/>
<path d="M4240 7716 c0 -2 7 -7 16 -10 8 -3 12 -2 9 4 -6 10 -25 14 -25 6z"/>
<path d="M4605 7710 c3 -5 11 -10 16 -10 6 0 7 5 4 10 -3 6 -11 10 -16 10 -6
0 -7 -4 -4 -10z"/>
<path d="M4698 7654 c-3 -5 3 -17 14 -26 21 -21 24 -10 5 17 -8 10 -16 14 -19
9z"/>
<path d="M4275 7630 c-8 -13 9 -20 24 -11 10 6 9 10 -3 14 -8 3 -18 2 -21 -3z"/>
<path d="M5120 9859 c0 -5 5 -7 10 -4 6 3 10 8 10 11 0 2 -4 4 -10 4 -5 0 -10
-5 -10 -11z"/>
<path d="M5147 9831 c3 -12 9 -21 14 -21 14 0 11 16 -5 29 -12 10 -13 8 -9 -8z"/>
<path d="M5709 9026 c6 -7 22 -11 36 -8 32 6 29 9 -13 15 -26 4 -31 3 -23 -7z"/>
<path d="M5676 9005 c-3 -8 -1 -15 4 -15 6 0 10 7 10 15 0 8 -2 15 -4 15 -2 0
-6 -7 -10 -15z"/>
<path d="M5698 8953 c7 -3 16 -2 19 1 4 3 -2 6 -13 5 -11 0 -14 -3 -6 -6z"/>
<path d="M5687 8154 c3 -7 9 -14 14 -14 14 0 10 17 -5 23 -10 4 -13 1 -9 -9z"/>
<path d="M4160 7638 c0 -4 4 -8 9 -8 6 0 12 4 15 8 3 5 -1 9 -9 9 -8 0 -15 -4
-15 -9z"/>
<path d="M4756 4835 c-9 -26 -7 -32 5 -12 6 10 9 21 6 23 -2 3 -7 -2 -11 -11z"/>
<path d="M4841 4734 c0 -11 3 -14 6 -6 3 7 2 16 -1 19 -3 4 -6 -2 -5 -13z"/>
<path d="M4902 4680 c0 -19 2 -27 5 -17 2 9 2 25 0 35 -3 9 -5 1 -5 -18z"/>
<path d="M5041 4634 c0 -11 3 -14 6 -6 3 7 2 16 -1 19 -3 4 -6 -2 -5 -13z"/>
<path d="M5100 4631 c0 -6 5 -13 10 -16 6 -3 10 1 10 9 0 9 -4 16 -10 16 -5 0
-10 -4 -10 -9z"/>
<path d="M5030 4581 c0 -5 7 -12 16 -15 14 -5 15 -4 4 9 -14 17 -20 19 -20 6z"/>
<path d="M5317 4369 c-3 -10 -1 -19 5 -19 6 0 8 -13 6 -30 -3 -16 -1 -30 4
-30 5 0 7 -4 3 -9 -3 -5 -1 -12 5 -16 6 -4 10 7 10 27 0 18 3 42 6 53 3 13 -2
24 -15 32 -16 10 -20 9 -24 -8z"/>
<path d="M5312 4260 c0 -14 2 -19 5 -12 2 6 2 18 0 25 -3 6 -5 1 -5 -13z"/>
<path d="M5285 4120 c3 -5 8 -10 11 -10 2 0 4 5 4 10 0 6 -5 10 -11 10 -5 0
-7 -4 -4 -10z"/>
<path d="M5196 3685 c4 -8 7 -15 9 -15 2 0 5 7 9 15 3 9 0 15 -9 15 -9 0 -12
-6 -9 -15z"/>
<path d="M5121 3634 c0 -11 3 -14 6 -6 3 7 2 16 -1 19 -3 4 -6 -2 -5 -13z"/>
<path d="M5320 3559 c0 -5 5 -7 10 -4 6 3 10 8 10 11 0 2 -4 4 -10 4 -5 0 -10
-5 -10 -11z"/>
<path d="M3715 3485 c-5 -11 -10 -24 -13 -30 -3 -5 3 -3 13 7 9 9 15 22 12 30
-3 9 -7 7 -12 -7z"/>
<path d="M3671 3472 c-6 -12 -11 -27 -11 -34 1 -7 8 0 16 15 9 16 13 31 11 34
-3 2 -10 -4 -16 -15z"/>
<path d="M3903 3423 c-13 -2 -23 -11 -23 -18 0 -8 -11 -25 -24 -39 -18 -20
-23 -37 -23 -74 1 -42 4 -48 22 -47 41 0 103 98 73 116 -9 6 -9 11 1 23 18 21
7 21 -14 0 -25 -25 -28 -10 -4 19 11 15 19 26 17 26 -2 -1 -13 -4 -25 -6z m8
-90 c-8 -15 -10 -15 -11 -2 0 17 10 32 18 25 2 -3 -1 -13 -7 -23z"/>
<path d="M4936 3383 c-6 -14 -5 -15 5 -6 7 7 10 15 7 18 -3 3 -9 -2 -12 -12z"/>
<path d="M4924 3349 c-3 -6 2 -19 12 -30 16 -18 16 -19 1 -13 -9 3 -17 2 -17
-3 0 -5 15 -9 33 -9 17 0 40 -2 51 -5 20 -4 32 26 15 37 -5 3 -9 -2 -9 -10 0
-24 -16 -19 -49 13 -18 17 -33 26 -37 20z"/>
<path d="M4802 3338 c5 -15 28 -23 28 -10 0 5 -7 13 -16 16 -10 4 -14 1 -12
-6z"/>
<path d="M4840 3325 c0 -18 26 -20 36 -3 4 7 3 8 -4 4 -7 -4 -12 -2 -12 3 0 6
-4 11 -10 11 -5 0 -10 -7 -10 -15z"/>
<path d="M3943 3301 c-15 -24 -5 -35 15 -15 9 9 11 19 6 24 -6 6 -14 2 -21 -9z"/>
<path d="M3985 3290 c-3 -11 -9 -20 -13 -20 -10 0 -9 -57 1 -66 4 -5 5 -1 2 8
-3 8 0 18 7 21 8 2 15 21 16 41 3 40 -3 47 -13 16z"/>
<path d="M3920 3209 c0 -5 5 -7 10 -4 6 3 10 8 10 11 0 2 -4 4 -10 4 -5 0 -10
-5 -10 -11z"/>
<path d="M4020 3172 c0 -5 7 -9 15 -9 8 0 15 4 15 9 0 4 -7 8 -15 8 -8 0 -15
-4 -15 -8z"/>
<path d="M3950 3161 c0 -6 4 -12 8 -15 5 -3 9 1 9 9 0 8 -4 15 -9 15 -4 0 -8
-4 -8 -9z"/>
<path d="M4048 3132 c-10 -2 -18 -10 -18 -18 0 -16 9 -18 29 -5 18 12 10 28
-11 23z"/>
<path d="M4300 3060 c0 -5 5 -10 10 -10 6 0 10 5 10 10 0 6 -4 10 -10 10 -5 0
-10 -4 -10 -10z"/>
<path d="M4690 2845 c0 -8 2 -15 4 -15 2 0 6 7 10 15 3 8 1 15 -4 15 -6 0 -10
-7 -10 -15z"/>
<path d="M9071 4724 c0 -11 3 -14 6 -6 3 7 2 16 -1 19 -3 4 -6 -2 -5 -13z"/>
<path d="M8830 4619 c0 -5 -6 -7 -12 -3 -10 5 -10 4 -1 -6 6 -7 16 -9 22 -6
14 9 14 26 1 26 -5 0 -10 -5 -10 -11z"/>
<path d="M8000 4340 c-29 -34 -50 -63 -47 -66 6 -7 62 53 90 97 30 46 13 34
-43 -31z"/>
<path d="M7630 3855 c-7 -8 -16 -13 -20 -10 -4 2 -12 -6 -18 -19 -9 -21 -8
-25 9 -29 16 -4 19 -2 14 14 -4 11 -2 19 5 19 12 0 40 24 40 34 0 11 -18 6
-30 -9z"/>
<path d="M8200 3829 c0 -5 5 -7 10 -4 6 3 10 8 10 11 0 2 -4 4 -10 4 -5 0 -10
-5 -10 -11z"/>
<path d="M8652 3659 c2 -7 10 -15 17 -17 8 -3 12 1 9 9 -2 7 -10 15 -17 17 -8
3 -12 -1 -9 -9z"/>
<path d="M8015 3160 c-3 -5 -1 -10 4 -10 6 0 11 5 11 10 0 6 -2 10 -4 10 -3 0
-8 -4 -11 -10z"/>
<path d="M7870 3095 c-22 -24 -25 -42 -5 -27 10 7 38 52 32 52 -2 0 -14 -11
-27 -25z"/>
<path d="M7899 3093 c-13 -17 -13 -17 6 -3 11 8 22 16 24 17 2 2 0 3 -6 3 -6
0 -17 -8 -24 -17z"/>
<path d="M7770 2519 c0 -11 4 -18 10 -14 5 3 7 12 3 20 -7 21 -13 19 -13 -6z"/>
<path d="M7990 2276 c0 -9 5 -16 10 -16 6 0 10 4 10 9 0 6 -4 13 -10 16 -5 3
-10 -1 -10 -9z"/>
<path d="M7983 2230 c6 -10 15 -16 19 -14 14 9 9 22 -11 27 -17 4 -18 2 -8
-13z"/>
</g>
</svg>
